<!-- Generated by IcoMoon.io -->
<svg version="1.1" xmlns="http://www.w3.org/2000/svg" width="32" height="32" viewBox="0 0 32 32">
<title>antenna</title>
<path fill="#212121" d="M30.778 22.101l-8.444-8.506 0.937-4.617c0.225 0.090 0.485 0.144 0.758 0.146h0.033c0 0 0 0 0 0 1.193 0 2.16-0.967 2.16-2.16s-0.967-2.16-2.16-2.16c-1.193 0-2.16 0.967-2.16 2.16 0 0.266 0.048 0.52 0.136 0.755l-0.005-0.015-0.005-0.015-4.961 0.606-8.092-8.134c-0.096-0.098-0.229-0.159-0.376-0.16h-0c-0.146 0.001-0.277 0.060-0.373 0.155l0-0-1.512 1.504c-0.096 0.097-0.155 0.23-0.155 0.377s0.059 0.28 0.155 0.377l-0-0 0.814 0.825c-1.143 2.062-1.816 4.523-1.816 7.14 0 4.107 1.656 7.825 4.337 10.527l-0.001-0.001c0.041 0.040 0.090 0.072 0.143 0.096l0.003 0.001c-0.033 0.164-0.051 0.353-0.052 0.546v6.189h-6.401c-1.472 0.001-2.666 1.194-2.667 2.666v1.067c0 0.295 0.239 0.534 0.534 0.534h24.538c0.295-0.001 0.533-0.239 0.533-0.534 0 0 0 0 0 0v0-1.067c-0.002-1.472-1.195-2.664-2.666-2.666h-6.401v-2.742c0.919 0.203 1.975 0.32 3.057 0.32 2.608 0 5.058-0.675 7.185-1.86l-0.075 0.038-0.077 0.039 0.818 0.823c0.096 0.098 0.229 0.159 0.376 0.16h0c0.146-0.001 0.277-0.060 0.373-0.155l-0 0 1.512-1.504c0.096-0.097 0.155-0.23 0.155-0.377s-0.059-0.28-0.155-0.377l0 0zM23.284 6.234c0.193-0.193 0.46-0.312 0.754-0.312 0.589 0 1.067 0.478 1.067 1.067s-0.478 1.067-1.067 1.067c-0.001 0-0.001 0-0.002 0h-0.004c-0.587-0.003-1.062-0.479-1.062-1.066 0-0.296 0.12-0.563 0.314-0.756l0-0h-0.002zM22.027 9.738l-0.598 2.946-1.175-1.183 1.774-1.763zM21.422 8.836l-1.92 1.909-1.486-1.493 3.407-0.416zM24.008 28.804c0.884 0 1.6 0.716 1.6 1.6v0 0.534h-23.47v-0.534c0-0.884 0.716-1.6 1.6-1.6h20.27zM16.541 26.67v1.067h-5.335v-1.067h5.335zM11.206 25.604v-4.054c0-1.294 1.196-2.346 2.667-2.346s2.667 1.053 2.667 2.346v4.054h-5.335zM17.607 23.908v-2.357c0-1.882-1.675-3.413-3.734-3.413h-0.058c-1.353 0-2.54 0.707-3.213 1.771l-0.009 0.016c-2.36-2.475-3.813-5.833-3.813-9.531 0-0.007 0-0.014 0-0.022v0.001c0-2.314 0.567-4.497 1.569-6.415l-0.036 0.077 18.605 18.712c-1.823 0.947-3.98 1.502-6.267 1.502-1.079 0-2.128-0.124-3.136-0.357l0.093 0.018zM28.897 23.224l-21.060-21.184 0.754-0.752 7.936 7.981c0.004 0 0.006 0.007 0.010 0.010l13.116 13.193-0.757 0.752z"></path>
<path fill="#2196f3" d="M13.878 20.27h-0.007c-0 0-0.001 0-0.002 0-0.884 0-1.6 0.716-1.6 1.6s0.716 1.599 1.599 1.6h0.007c0 0 0.001 0 0.001 0 0.884 0 1.6-0.716 1.6-1.6s-0.716-1.6-1.599-1.6h-0zM14.251 22.248c-0.097 0.096-0.23 0.156-0.377 0.156-0.295 0-0.534-0.239-0.534-0.534s0.239-0.534 0.533-0.534h0c0.294 0.001 0.531 0.239 0.531 0.533 0 0.148-0.060 0.281-0.157 0.378l-0 0h0.005z"></path>
</svg>
