<!-- Generated by IcoMoon.io -->
<svg version="1.1" xmlns="http://www.w3.org/2000/svg" width="32" height="32" viewBox="0 0 32 32">
<title>clock</title>
<path fill="#212121" d="M31.301 15.303c-0.001-8.453-6.856-15.305-15.31-15.303s-15.305 6.856-15.303 15.31c0.002 6.789 4.423 12.545 10.543 14.547l0.108 0.031c0.057 0.018 0.122 0.028 0.19 0.028 0.125 0 0.242-0.034 0.342-0.094l-0.003 0.002c0.134-0.080 0.234-0.205 0.282-0.353l0.001-0.005 3.866-12.252c1.053-0.005 1.905-0.86 1.905-1.913 0-1.057-0.857-1.913-1.913-1.913-0.307 0-0.597 0.072-0.855 0.201l0.022-0.010-5.107-5.108c-0.114-0.109-0.269-0.176-0.44-0.176-0.352 0-0.638 0.286-0.638 0.638 0 0.171 0.067 0.326 0.176 0.44l-0-0 5.104 5.11c-0.12 0.239-0.191 0.52-0.191 0.818 0 0.003 0 0.006 0 0.008v-0c0 0.602 0.283 1.137 0.723 1.48l0.004 0.003-3.683 11.675c-7.279-2.681-11.006-10.756-8.325-18.035s10.756-11.006 18.035-8.324c7.279 2.681 11.006 10.756 8.324 18.035-1.345 3.582-4.004 6.407-7.375 7.939l-0.088 0.036-0.398-1.874c-0.064-0.291-0.319-0.505-0.625-0.505-0.164 0-0.313 0.061-0.426 0.163l0.001-0.001 0.001-0.001-3.838 3.427c-0.132 0.117-0.215 0.287-0.215 0.477 0 0.282 0.183 0.521 0.437 0.605l0.005 0.001 0.005 0.001 4.9 1.563c0.059 0.020 0.126 0.031 0.196 0.031 0.352 0 0.637-0.285 0.637-0.637 0-0.049-0.006-0.096-0.016-0.142l0.001 0.004 0.001 0.004-0.391-1.839c5.529-2.374 9.33-7.773 9.33-14.059v-0.032zM15.994 14.666c0.352 0 0.638 0.286 0.638 0.638s-0.286 0.638-0.638 0.638v0c-0.352 0-0.638-0.286-0.638-0.638s0.286-0.638 0.638-0.638v0zM18.095 29.532l2.184-1.948 0.603 2.84-2.787-0.892z"></path>
<path fill="#2196f3" d="M15.356 3.185v1.275c0 0.352 0.286 0.638 0.638 0.638s0.638-0.286 0.638-0.638v0-1.275c0-0.352-0.286-0.638-0.638-0.638s-0.638 0.286-0.638 0.638v0zM3.877 14.666c-0.352 0-0.638 0.286-0.638 0.638s0.286 0.638 0.638 0.638h1.275c0.352 0 0.638-0.286 0.638-0.638s-0.286-0.638-0.638-0.638h-1.275zM28.112 15.941c0.352 0 0.638-0.286 0.638-0.638s-0.286-0.638-0.638-0.638h-1.275c-0.352 0-0.638 0.286-0.638 0.638s0.286 0.638 0.638 0.638h1.275z"></path>
</svg>
