<!-- Generated by IcoMoon.io -->
<svg version="1.1" xmlns="http://www.w3.org/2000/svg" width="32" height="32" viewBox="0 0 32 32">
<title>diagram</title>
<path fill="#2196f3" d="M14.928 14.967h1.066v4.799h-1.066v-4.799zM19.193 17.1h1.066v2.665h-1.066v-2.665zM10.663 18.699h1.066v1.066h-1.066v-1.066zM7.464 18.166h1.066v1.599h-1.066v-1.599z"></path>
<path fill="#212121" d="M1.599 28.295h25.59c0.883-0.001 1.599-0.716 1.599-1.599v-2.132c-0.001-0.883-0.716-1.599-1.599-1.599h-0.533v-13.296l3.028-2.868c0.207 0.104 0.452 0.165 0.71 0.165 0.888 0 1.608-0.72 1.608-1.608s-0.72-1.608-1.608-1.608c-0.888 0-1.608 0.72-1.608 1.608 0 0.251 0.058 0.489 0.16 0.7l-0.004-0.010-0.004-0.010-2.281 2.162v-1.23c-0.001-0.883-0.716-1.599-1.599-1.599h-21.326c-0.883 0.001-1.599 0.716-1.599 1.599v15.994h-0.533c-0.883 0.001-1.599 0.716-1.599 1.599v2.132c0.001 0.883 0.716 1.599 1.599 1.599h0zM30.389 4.838c0.294 0 0.533 0.239 0.533 0.533s-0.239 0.533-0.533 0.533v0c-0.294 0-0.533-0.239-0.533-0.533s0.239-0.533 0.533-0.533v0zM3.198 6.97c0-0.294 0.239-0.533 0.533-0.533h21.326c0.294 0 0.533 0.239 0.533 0.533v2.239l-1.066 1.013v-2.185c0-0.295-0.239-0.534-0.534-0.534v0h-19.192c0 0 0 0 0 0-0.295 0-0.534 0.239-0.534 0.533v13.329c0 0.294 0.239 0.533 0.534 0.533h19.192c0 0 0 0 0 0 0.295 0 0.534-0.239 0.534-0.533v-9.677l1.066-1.010v12.285h-22.392v-15.993zM7.997 13.901h-0.005c-0.001 0-0.002 0-0.003 0-0.884 0-1.6 0.716-1.6 1.6s0.716 1.6 1.6 1.6c0.434 0 0.827-0.172 1.115-0.452l-0 0 1.853 0.93c0.069 0.035 0.151 0.056 0.238 0.056 0.158 0 0.3-0.068 0.398-0.177l0-0 3.94-4.433 3.873 2.902c0.088 0.066 0.199 0.106 0.32 0.106 0.142 0 0.271-0.055 0.367-0.146l-0 0 3.366-3.188v8.132h-18.126v-12.263h18.126v2.661l-3.772 3.573-3.905-2.927c-0.088-0.067-0.2-0.107-0.32-0.107-0.158 0-0.3 0.068-0.397 0.177l-0 0.001v0.001l-3.994 4.494-1.493-0.746c0.011-0.064 0.017-0.128 0.020-0.193-0.001-0.883-0.716-1.599-1.599-1.599h-0zM8.53 15.5c0 0.294-0.239 0.533-0.533 0.533s-0.533-0.239-0.533-0.533v0c0-0.294 0.239-0.533 0.533-0.533s0.533 0.239 0.533 0.533v0zM11.729 24.030h5.331v0.533c0 0.294-0.239 0.533-0.533 0.533v0h-4.266c-0.294 0-0.533-0.239-0.533-0.533v0-0.533zM1.067 24.564c0-0.294 0.238-0.533 0.533-0.533h9.063v0.533c0.001 0.883 0.716 1.599 1.599 1.599h4.266c0.883-0.001 1.599-0.716 1.599-1.599v-0.533h9.063c0.294 0 0.533 0.239 0.533 0.533v2.132c0 0.294-0.239 0.533-0.533 0.533v0h-25.59c-0.294 0-0.533-0.239-0.533-0.533v0-2.132z"></path>
</svg>
