<svg aria-hidden="true" style="position: absolute; width: 0; height: 0; overflow: hidden;" version="1.1" xmlns="http://www.w3.org/2000/svg" xmlns:xlink="http://www.w3.org/1999/xlink">
<defs>
<symbol id="antenna" viewBox="0 0 32 32">
<path fill="#212121" style="fill: var(--color1, #212121)" d="M30.778 22.101l-8.444-8.506 0.937-4.617c0.225 0.090 0.485 0.144 0.758 0.146h0.033c0 0 0 0 0 0 1.193 0 2.16-0.967 2.16-2.16s-0.967-2.16-2.16-2.16c-1.193 0-2.16 0.967-2.16 2.16 0 0.266 0.048 0.52 0.136 0.755l-0.005-0.015-0.005-0.015-4.961 0.606-8.092-8.134c-0.096-0.098-0.229-0.159-0.376-0.16h-0c-0.146 0.001-0.277 0.060-0.373 0.155l0-0-1.512 1.504c-0.096 0.097-0.155 0.23-0.155 0.377s0.059 0.28 0.155 0.377l-0-0 0.814 0.825c-1.143 2.062-1.816 4.523-1.816 7.14 0 4.107 1.656 7.825 4.337 10.527l-0.001-0.001c0.041 0.040 0.090 0.072 0.143 0.096l0.003 0.001c-0.033 0.164-0.051 0.353-0.052 0.546v6.189h-6.401c-1.472 0.001-2.666 1.194-2.667 2.666v1.067c0 0.295 0.239 0.534 0.534 0.534h24.538c0.295-0.001 0.533-0.239 0.533-0.534 0 0 0 0 0 0v0-1.067c-0.002-1.472-1.195-2.664-2.666-2.666h-6.401v-2.742c0.919 0.203 1.975 0.32 3.057 0.32 2.608 0 5.058-0.675 7.185-1.86l-0.075 0.038-0.077 0.039 0.818 0.823c0.096 0.098 0.229 0.159 0.376 0.16h0c0.146-0.001 0.277-0.060 0.373-0.155l-0 0 1.512-1.504c0.096-0.097 0.155-0.23 0.155-0.377s-0.059-0.28-0.155-0.377l0 0zM23.284 6.234c0.193-0.193 0.46-0.312 0.754-0.312 0.589 0 1.067 0.478 1.067 1.067s-0.478 1.067-1.067 1.067c-0.001 0-0.001 0-0.002 0h-0.004c-0.587-0.003-1.062-0.479-1.062-1.066 0-0.296 0.12-0.563 0.314-0.756l0-0h-0.002zM22.027 9.738l-0.598 2.946-1.175-1.183 1.774-1.763zM21.422 8.836l-1.92 1.909-1.486-1.493 3.407-0.416zM24.008 28.804c0.884 0 1.6 0.716 1.6 1.6v0 0.534h-23.47v-0.534c0-0.884 0.716-1.6 1.6-1.6h20.27zM16.541 26.67v1.067h-5.335v-1.067h5.335zM11.206 25.604v-4.054c0-1.294 1.196-2.346 2.667-2.346s2.667 1.053 2.667 2.346v4.054h-5.335zM17.607 23.908v-2.357c0-1.882-1.675-3.413-3.734-3.413h-0.058c-1.353 0-2.54 0.707-3.213 1.771l-0.009 0.016c-2.36-2.475-3.813-5.833-3.813-9.531 0-0.007 0-0.014 0-0.022v0.001c0-2.314 0.567-4.497 1.569-6.415l-0.036 0.077 18.605 18.712c-1.823 0.947-3.98 1.502-6.267 1.502-1.079 0-2.128-0.124-3.136-0.357l0.093 0.018zM28.897 23.224l-21.060-21.184 0.754-0.752 7.936 7.981c0.004 0 0.006 0.007 0.010 0.010l13.116 13.193-0.757 0.752z"></path>
<path fill="#2196f3" style="fill: var(--color2, #2196f3)" d="M13.878 20.27h-0.007c-0 0-0.001 0-0.002 0-0.884 0-1.6 0.716-1.6 1.6s0.716 1.599 1.599 1.6h0.007c0 0 0.001 0 0.001 0 0.884 0 1.6-0.716 1.6-1.6s-0.716-1.6-1.599-1.6h-0zM14.251 22.248c-0.097 0.096-0.23 0.156-0.377 0.156-0.295 0-0.534-0.239-0.534-0.534s0.239-0.534 0.533-0.534h0c0.294 0.001 0.531 0.239 0.531 0.533 0 0.148-0.060 0.281-0.157 0.378l-0 0h0.005z"></path>
</symbol>
<symbol id="astronaut" viewBox="0 0 32 32">
<path fill="#2196f3" style="fill: var(--color2, #2196f3)" d="M31.979 4.525c-0.064-0.19-0.226-0.33-0.424-0.362l-0.003-0h-0.003l-1.911-0.278-0.855-1.731c-0.179-0.365-0.777-0.365-0.956 0l-0.855 1.731-1.911 0.278c-0.26 0.039-0.457 0.261-0.457 0.528 0 0.149 0.061 0.285 0.16 0.382l0 0 1.383 1.348-0.326 1.903c-0.005 0.028-0.008 0.060-0.008 0.092 0 0.294 0.238 0.532 0.532 0.532 0.092 0 0.178-0.023 0.253-0.064l-0.003 0.001 1.709-0.899 1.709 0.899c0.072 0.038 0.157 0.060 0.247 0.060 0.295 0 0.534-0.239 0.534-0.534 0-0.032-0.003-0.064-0.008-0.095l0 0.003v0.003l-0.326-1.903 1.383-1.348c0.099-0.097 0.161-0.233 0.161-0.383 0-0.060-0.010-0.118-0.028-0.171l0.001 0.004 0.001 0.004zM29.515 5.852c-0.099 0.096-0.161 0.231-0.161 0.38 0 0.032 0.003 0.064 0.008 0.095l-0-0.003 0.191 1.114-1-0.526c-0.072-0.040-0.158-0.063-0.25-0.063s-0.179 0.024-0.254 0.066l0.003-0.001 0.003-0.001-1 0.526 0.191-1.114c0.005-0.028 0.008-0.060 0.008-0.092 0-0.149-0.061-0.283-0.16-0.38l-0-0-0.811-0.79 1.119-0.162c0.178-0.026 0.325-0.137 0.401-0.289l0.001-0.003 0.5-1.013 0.5 1.013c0.078 0.155 0.225 0.266 0.399 0.292l0.003 0 1.119 0.162-0.809 0.79zM26.138 20.525h-1.067v1.067h1.067v-1.067zM26.138 22.659h-1.067v1.066h1.067v-1.066zM27.204 21.592h-1.067v1.067h1.067v-1.067zM25.071 21.592h-1.067v1.067h1.067v-1.067zM22.403 26.393h-1.067v1.067h1.067v-1.067zM22.403 28.527h-1.067v1.067h1.067v-1.067zM23.471 27.46h-1.067v1.067h1.067v-1.067zM21.337 27.46h-1.067v1.067h1.067v-1.067zM16.002 24.26h-1.066v1.067h1.066v-1.067zM16.002 26.393h-1.066v1.067h1.066v-1.067zM17.070 25.326h-1.067v1.067h1.067v-1.067zM14.936 25.326h-1.067v1.067h1.067v-1.067zM5.868 6.123h-1.066v1.066h1.066v-1.066zM5.868 8.257h-1.066v1.066h1.066v-1.066zM6.934 7.19h-1.067v1.067h1.066v-1.067zM4.801 7.19h-1.067v1.067h1.067v-1.067z"></path>
<path fill="#212121" style="fill: var(--color1, #212121)" d="M24.719 14.162c-0.278-0.374-0.693-0.633-1.17-0.702l-0.010-0.001-0.009-0.001c-0.077-0.012-0.166-0.019-0.257-0.019-0.412 0-0.791 0.141-1.091 0.377l0.004-0.003 0.004-0.003-1.253 0.96-1.898 1.417-1.358-0.541c2.421-1.086 4.114-3.509 4.114-6.321 0-3.824-3.122-6.935-6.962-6.935s-6.962 3.11-6.962 6.935c0 1.386 0.415 2.674 1.12 3.76l-2.768-0.024c-0.009 0-0.016 0.005-0.023 0.005-0.058 0.003-0.112 0.015-0.162 0.034l0.003-0.001 0.004-0.001c-0.013 0.005-0.026 0.007-0.038 0.013-0.006 0.003-0.013 0.003-0.019 0.006l-3.235 1.597-1.893 0.91c-0.025 0.012-0.047 0.024-0.067 0.037l0.002-0.001 0.001-0.001c-0.482 0.324-0.795 0.867-0.795 1.484 0 0.301 0.074 0.584 0.206 0.832l-0.005-0.010-0.005-0.010c0.22 0.424 0.592 0.742 1.043 0.885l0.013 0.003c0.161 0.053 0.346 0.084 0.539 0.084 0.311 0 0.604-0.080 0.859-0.221l-0.009 0.005-0.009 0.005 1.388-0.738 2.264-1.169 1.357-0.008-6.783 6.75c-0.303 0.298-0.491 0.713-0.491 1.172 0 0.001 0 0.001 0 0.002v-0 0.005c0.002 0.919 0.748 1.664 1.667 1.664h0.002c0.001 0 0.002 0 0.003 0 0.459 0 0.875-0.185 1.177-0.485l-0 0 1.314-1.309 1.741-1.3 0.901 0.897-3.102 3.088c-0.303 0.298-0.491 0.713-0.491 1.172 0 0.001 0 0.001 0 0.002v-0 0.004c0 0.001 0 0.001 0 0.002 0 0.918 0.744 1.662 1.662 1.662 0.001 0 0.003 0 0.004 0h0.003c0.001 0 0.002 0 0.003 0 0.459 0 0.875-0.185 1.177-0.485l-0 0 4.489-4.473c0.007-0.006 0.016-0.009 0.022-0.016l5.167-5.659 3.472 0.494c0.023 0.004 0.049 0.006 0.076 0.006 0.067 0 0.131-0.014 0.189-0.039l-0.003 0.001c0.017-0.006 0.032-0.015 0.049-0.023 0.019-0.010 0.039-0.015 0.058-0.027l3.213-2.133c0.012-0.008 0.018-0.021 0.029-0.030 0.013-0.010 0.029-0.014 0.041-0.026l1.271-1.191c0.348-0.326 0.564-0.787 0.564-1.3 0-0.4-0.132-0.769-0.355-1.066l0.003 0.005zM2.13 17.773c-0.098 0.055-0.215 0.087-0.339 0.087-0.080 0-0.158-0.013-0.23-0.038l0.005 0.002 0.005 0.001c-0.294-0.094-0.502-0.365-0.502-0.684 0-0.234 0.112-0.442 0.285-0.573l0.002-0.001 0.002-0.001 1.314-0.632 0.449 1.313-0.992 0.527zM5.628 15.944l-1.548 0.8-0.255-0.746-0.184-0.537 2.027-1.001-0.040 1.484zM20.73 9.323c0 0.918-0.219 1.785-0.599 2.56l-4.182-1.899c-0.044-0.573-0.34-1.068-0.776-1.38l-0.006-0.004-0.006-0.004 1.464-4.862c2.377 0.757 4.105 2.975 4.105 5.589zM8.939 9.323c0-3.236 2.644-5.868 5.895-5.868 0.253 0 0.5 0.022 0.745 0.053l-1.432 4.754c-0.019 0-0.037-0.006-0.057-0.006h-0.001c0 0 0 0 0 0-1.032 0-1.869 0.835-1.872 1.867v0c0.003 1.032 0.84 1.867 1.872 1.867h0.001c0.695 0 1.295-0.383 1.618-0.944l3.864 1.755c-1.085 1.457-2.802 2.39-4.738 2.39h-0c-3.251 0-5.895-2.632-5.895-5.868zM14.897 10.124c0 0.441-0.362 0.8-0.806 0.8h-0.001c0 0 0 0 0 0-0.443 0-0.802-0.358-0.804-0.8v-0c0-0.441 0.361-0.8 0.806-0.8s0.806 0.359 0.806 0.8zM2.464 25.15c-0.11 0.109-0.261 0.177-0.428 0.177s-0.318-0.067-0.427-0.176l0 0c-0.109-0.107-0.177-0.257-0.177-0.422s0.068-0.315 0.177-0.422l0-0 0.962-0.959 0.852 0.848-0.959 0.954zM5.679 28.884c-0.11 0.109-0.261 0.177-0.428 0.177s-0.318-0.067-0.427-0.176l0 0c-0.109-0.107-0.177-0.257-0.177-0.422s0.068-0.315 0.177-0.422l0-0 0.963-0.959 0.852 0.848-0.96 0.955zM9.161 25.415l-0.001 0.001-1.765 1.76-0.852-0.848 1.765-1.757c0.036-0.039 0.066-0.084 0.089-0.133l0.001-0.003c0.007-0.014 0.020-0.026 0.026-0.040 0.016-0.041 0.019-0.085 0.026-0.128 0.003-0.025 0.014-0.048 0.014-0.073 0-0.035-0.013-0.070-0.020-0.105-0.006-0.032-0.006-0.064-0.019-0.096-0.025-0.053-0.056-0.098-0.092-0.138l0 0c-0.010-0.012-0.014-0.026-0.025-0.038h-0.001l-0.001-0.002-1.607-1.6c-0.017-0.017-0.039-0.024-0.058-0.038-0.025-0.020-0.052-0.039-0.081-0.055l-0.003-0.001-0.003-0.001c-0.025-0.012-0.055-0.022-0.086-0.030l-0.004-0.001-0.003-0.001c-0.029-0.009-0.064-0.016-0.099-0.020l-0.002-0h-0.025c-0.027 0-0.053 0.002-0.078 0.005l0.003-0h0.003c-0.036 0.005-0.069 0.009-0.104 0.021s-0.064 0.027-0.094 0.045c-0.020 0.011-0.043 0.015-0.061 0.029l-1.774 1.324-0.901-0.897 2.399-2.386 4.361 4.29-0.928 0.919zM15.981 18.397c-0.016-0.002-0.030 0.004-0.046 0.003l-0.027-0.001c-0.033 0-0.064 0.003-0.095 0.009l0.003-0h0.003c-0.070 0.011-0.134 0.036-0.189 0.071l0.002-0.001 0.002-0.001c-0.031 0.018-0.059 0.039-0.083 0.061l0-0c-0.013 0.011-0.028 0.016-0.040 0.029l-4.699 5.147-4.329-4.257 2.833-2.818c0.095-0.097 0.154-0.229 0.154-0.376 0-0.295-0.238-0.534-0.532-0.535h-0.002l-2.219 0.013 0.028-1.607 3.104 0.027c1.261 1.297 3.021 2.101 4.97 2.101 0.003 0 0.006 0 0.009 0h0.003c0.438 0 0.864-0.046 1.28-0.122 0.040 0.032 0.080 0.064 0.129 0.085l2.41 0.96 0.152 0.758 0.178 0.886-3.003-0.427zM20.023 18.575l-0.313-1.558 1.446-1.080 0.946 1.257-2.080 1.381zM23.777 15.743l-0.837 0.785-0.931-1.236 0.831-0.637c0.122-0.093 0.277-0.15 0.445-0.15 0.035 0 0.069 0.002 0.102 0.007l-0.004-0c0.352 0.049 0.62 0.348 0.621 0.71v0c0 0 0 0.001 0 0.002 0 0.205-0.087 0.39-0.226 0.519l-0 0z"></path>
<path fill="#212121" style="fill: var(--color1, #212121)" d="M13.604 18.547l-2.143-2.134c-0.096-0.097-0.229-0.157-0.376-0.157s-0.28 0.060-0.376 0.156l-0 0-2.143 2.133c-0.097 0.097-0.156 0.23-0.156 0.378s0.060 0.281 0.156 0.378v0l2.142 2.134c0.096 0.097 0.229 0.157 0.376 0.157s0.28-0.060 0.376-0.156l0-0 2.143-2.134c0.097-0.096 0.158-0.23 0.158-0.378s-0.060-0.282-0.158-0.378l-0-0zM11.085 20.306l-1.387-1.381 1.386-1.381 1.387 1.381-1.387 1.381zM17.167 5.072l-0.258 1.036c0.071 0.018 1.738 0.452 1.738 2.149h1.067c0-2.017-1.666-2.965-2.547-3.184zM19.714 9.323h-1.067v1.066h1.067v-1.066z"></path>
</symbol>
<symbol id="clock" viewBox="0 0 32 32">
<path fill="#212121" style="fill: var(--color1, #212121)" d="M31.301 15.303c-0.001-8.453-6.856-15.305-15.31-15.303s-15.305 6.856-15.303 15.31c0.002 6.789 4.423 12.545 10.543 14.547l0.108 0.031c0.057 0.018 0.122 0.028 0.19 0.028 0.125 0 0.242-0.034 0.342-0.094l-0.003 0.002c0.134-0.080 0.234-0.205 0.282-0.353l0.001-0.005 3.866-12.252c1.053-0.005 1.905-0.86 1.905-1.913 0-1.057-0.857-1.913-1.913-1.913-0.307 0-0.597 0.072-0.855 0.201l0.022-0.010-5.107-5.108c-0.114-0.109-0.269-0.176-0.44-0.176-0.352 0-0.638 0.286-0.638 0.638 0 0.171 0.067 0.326 0.176 0.44l-0-0 5.104 5.11c-0.12 0.239-0.191 0.52-0.191 0.818 0 0.003 0 0.006 0 0.008v-0c0 0.602 0.283 1.137 0.723 1.48l0.004 0.003-3.683 11.675c-7.279-2.681-11.006-10.756-8.325-18.035s10.756-11.006 18.035-8.324c7.279 2.681 11.006 10.756 8.324 18.035-1.345 3.582-4.004 6.407-7.375 7.939l-0.088 0.036-0.398-1.874c-0.064-0.291-0.319-0.505-0.625-0.505-0.164 0-0.313 0.061-0.426 0.163l0.001-0.001 0.001-0.001-3.838 3.427c-0.132 0.117-0.215 0.287-0.215 0.477 0 0.282 0.183 0.521 0.437 0.605l0.005 0.001 0.005 0.001 4.9 1.563c0.059 0.020 0.126 0.031 0.196 0.031 0.352 0 0.637-0.285 0.637-0.637 0-0.049-0.006-0.096-0.016-0.142l0.001 0.004 0.001 0.004-0.391-1.839c5.529-2.374 9.33-7.773 9.33-14.059v-0.032zM15.994 14.666c0.352 0 0.638 0.286 0.638 0.638s-0.286 0.638-0.638 0.638v0c-0.352 0-0.638-0.286-0.638-0.638s0.286-0.638 0.638-0.638v0zM18.095 29.532l2.184-1.948 0.603 2.84-2.787-0.892z"></path>
<path fill="#2196f3" style="fill: var(--color2, #2196f3)" d="M15.356 3.185v1.275c0 0.352 0.286 0.638 0.638 0.638s0.638-0.286 0.638-0.638v0-1.275c0-0.352-0.286-0.638-0.638-0.638s-0.638 0.286-0.638 0.638v0zM3.877 14.666c-0.352 0-0.638 0.286-0.638 0.638s0.286 0.638 0.638 0.638h1.275c0.352 0 0.638-0.286 0.638-0.638s-0.286-0.638-0.638-0.638h-1.275zM28.112 15.941c0.352 0 0.638-0.286 0.638-0.638s-0.286-0.638-0.638-0.638h-1.275c-0.352 0-0.638 0.286-0.638 0.638s0.286 0.638 0.638 0.638h1.275z"></path>
</symbol>
<symbol id="diagram" viewBox="0 0 32 32">
<path fill="#2196f3" style="fill: var(--color2, #2196f3)" d="M14.928 14.967h1.066v4.799h-1.066v-4.799zM19.193 17.1h1.066v2.665h-1.066v-2.665zM10.663 18.699h1.066v1.066h-1.066v-1.066zM7.464 18.166h1.066v1.599h-1.066v-1.599z"></path>
<path fill="#212121" style="fill: var(--color1, #212121)" d="M1.599 28.295h25.59c0.883-0.001 1.599-0.716 1.599-1.599v-2.132c-0.001-0.883-0.716-1.599-1.599-1.599h-0.533v-13.296l3.028-2.868c0.207 0.104 0.452 0.165 0.71 0.165 0.888 0 1.608-0.72 1.608-1.608s-0.72-1.608-1.608-1.608c-0.888 0-1.608 0.72-1.608 1.608 0 0.251 0.058 0.489 0.16 0.7l-0.004-0.010-0.004-0.010-2.281 2.162v-1.23c-0.001-0.883-0.716-1.599-1.599-1.599h-21.326c-0.883 0.001-1.599 0.716-1.599 1.599v15.994h-0.533c-0.883 0.001-1.599 0.716-1.599 1.599v2.132c0.001 0.883 0.716 1.599 1.599 1.599h0zM30.389 4.838c0.294 0 0.533 0.239 0.533 0.533s-0.239 0.533-0.533 0.533v0c-0.294 0-0.533-0.239-0.533-0.533s0.239-0.533 0.533-0.533v0zM3.198 6.97c0-0.294 0.239-0.533 0.533-0.533h21.326c0.294 0 0.533 0.239 0.533 0.533v2.239l-1.066 1.013v-2.185c0-0.295-0.239-0.534-0.534-0.534v0h-19.192c0 0 0 0 0 0-0.295 0-0.534 0.239-0.534 0.533v13.329c0 0.294 0.239 0.533 0.534 0.533h19.192c0 0 0 0 0 0 0.295 0 0.534-0.239 0.534-0.533v-9.677l1.066-1.010v12.285h-22.392v-15.993zM7.997 13.901h-0.005c-0.001 0-0.002 0-0.003 0-0.884 0-1.6 0.716-1.6 1.6s0.716 1.6 1.6 1.6c0.434 0 0.827-0.172 1.115-0.452l-0 0 1.853 0.93c0.069 0.035 0.151 0.056 0.238 0.056 0.158 0 0.3-0.068 0.398-0.177l0-0 3.94-4.433 3.873 2.902c0.088 0.066 0.199 0.106 0.32 0.106 0.142 0 0.271-0.055 0.367-0.146l-0 0 3.366-3.188v8.132h-18.126v-12.263h18.126v2.661l-3.772 3.573-3.905-2.927c-0.088-0.067-0.2-0.107-0.32-0.107-0.158 0-0.3 0.068-0.397 0.177l-0 0.001v0.001l-3.994 4.494-1.493-0.746c0.011-0.064 0.017-0.128 0.020-0.193-0.001-0.883-0.716-1.599-1.599-1.599h-0zM8.53 15.5c0 0.294-0.239 0.533-0.533 0.533s-0.533-0.239-0.533-0.533v0c0-0.294 0.239-0.533 0.533-0.533s0.533 0.239 0.533 0.533v0zM11.729 24.030h5.331v0.533c0 0.294-0.239 0.533-0.533 0.533v0h-4.266c-0.294 0-0.533-0.239-0.533-0.533v0-0.533zM1.067 24.564c0-0.294 0.238-0.533 0.533-0.533h9.063v0.533c0.001 0.883 0.716 1.599 1.599 1.599h4.266c0.883-0.001 1.599-0.716 1.599-1.599v-0.533h9.063c0.294 0 0.533 0.239 0.533 0.533v2.132c0 0.294-0.239 0.533-0.533 0.533v0h-25.59c-0.294 0-0.533-0.239-0.533-0.533v0-2.132z"></path>
</symbol>
</defs>
</svg>
